<svg width="396" height="41" viewBox="0 0 396 41" fill="none" xmlns="http://www.w3.org/2000/svg">
<circle cx="65.5" cy="20.5" r="20.5" fill="#3038FF"/>
<path d="M65.5 41C62.8079 41 60.1422 40.4698 57.655 39.4395C55.1678 38.4093 52.9079 36.8993 51.0043 34.9957C49.1007 33.0921 47.5907 30.8322 46.5605 28.345C45.5302 25.8578 45 23.1921 45 20.5L65.5 20.5L65.5 41Z" fill="#F5BDBC"/>
<path d="M65.5 2.4446e-07C68.1921 2.76563e-07 70.8578 0.530247 73.345 1.56047C75.8322 2.59069 78.0921 4.10071 79.9957 6.00431C81.8993 7.90791 83.4093 10.1678 84.4395 12.655C85.4698 15.1422 86 17.8079 86 20.5L65.5 20.5L65.5 2.4446e-07Z" fill="#077644"/>
<path d="M23 1L46 40H0L23 1Z" fill="#077644"/>
<path fill-rule="evenodd" clip-rule="evenodd" d="M22.9121 40.3383V0.731201L45.7706 40.3383H22.9121Z" fill="#F4BCBB"/>
<path d="M130.501 31.6527H116.662L113.006 40.5822H107L123.816 1H124.182L140.998 40.5822H134L130.501 31.6527ZM128.464 26.4308L123.712 14.4204L118.803 26.4308H128.464Z" fill="#F4BCBB"/>
<path d="M168.271 40.5822L159.706 27.3708H159.079H153.596V40.5822H147.485V2.56658H158.191C162.439 2.56658 165.833 3.64578 168.375 5.80418C170.951 7.96258 172.24 10.9565 172.24 14.7859C172.24 17.1184 171.735 19.2942 170.725 21.3133C169.75 23.2976 168.201 24.8294 166.077 25.9086L175.321 40.5822H168.271ZM153.596 21.5222H159.027C161.464 21.5222 163.222 20.8607 164.302 19.5379C165.416 18.1802 165.973 16.6658 165.973 14.9948C165.973 14.02 165.764 13.0453 165.346 12.0705C164.928 11.0609 164.215 10.208 163.205 9.51175C162.195 8.78068 160.872 8.41514 159.236 8.41514H153.596V21.5222Z" fill="#F4BCBB"/>
<path d="M188.582 2.56658V40.5822H182.472V2.56658H188.582Z" fill="#F4BCBB"/>
<path d="M218.579 31.6527H204.739L201.083 40.5822H195.078L211.894 1H212.259L229.076 40.5822H222.078L218.579 31.6527ZM216.542 26.4308L211.789 14.4204L206.88 26.4308H216.542Z" fill="#F4BCBB"/>
<path d="M249.941 21.6266C249.941 18.1453 250.811 14.9252 252.552 11.9661C254.293 8.97215 256.643 6.58747 259.603 4.81201C262.597 3.03655 265.852 2.14882 269.368 2.14882C272.85 2.14882 276.071 3.03655 279.03 4.81201C282.024 6.58747 284.409 8.97215 286.185 11.9661C287.96 14.96 288.848 18.1802 288.848 21.6266C288.848 25.1427 287.96 28.3803 286.185 31.3394C284.444 34.2985 282.076 36.6484 279.082 38.389C276.088 40.1297 272.85 41 269.368 41C265.852 41 262.597 40.1471 259.603 38.4413C256.643 36.7006 254.293 34.3507 252.552 31.3916C250.811 28.4326 249.941 25.1775 249.941 21.6266ZM256.208 21.6266C256.208 24.0983 256.8 26.3612 257.984 28.4151C259.167 30.4691 260.769 32.1053 262.788 33.3238C264.842 34.5422 267.088 35.1514 269.525 35.1514C271.927 35.1514 274.121 34.5596 276.105 33.376C278.09 32.1575 279.657 30.5213 280.806 28.4674C281.989 26.3786 282.581 24.0983 282.581 21.6266C282.581 19.1549 281.989 16.8747 280.806 14.7859C279.622 12.6971 278.02 11.0435 276.001 9.82506C273.982 8.60661 271.771 7.99739 269.368 7.99739C266.931 7.99739 264.703 8.60661 262.684 9.82506C260.699 11.0435 259.115 12.6971 257.931 14.7859C256.782 16.8747 256.208 19.1549 256.208 21.6266Z" fill="#F4BCBB"/>
<path d="M316.917 10.295C313.644 8.58921 310.737 7.73629 308.196 7.73629C306.316 7.73629 304.819 8.15405 303.704 8.98956C302.625 9.82506 302.085 10.9739 302.085 12.436C302.085 13.8634 302.764 15.0644 304.122 16.0392C305.515 16.9791 307.447 17.9191 309.919 18.859C311.799 19.5205 313.401 20.2863 314.724 21.1567C316.082 21.9922 317.196 23.141 318.066 24.6031C318.937 26.0653 319.372 27.9104 319.372 30.1384C319.372 32.1575 318.867 33.9852 317.857 35.6214C316.848 37.2576 315.385 38.5631 313.47 39.5379C311.555 40.5126 309.292 41 306.681 41C304.383 41 302.12 40.6519 299.892 39.9556C297.664 39.2245 295.679 38.2324 293.938 36.9791L296.654 32.2272C297.942 33.2019 299.457 34.02 301.198 34.6815C302.973 35.3081 304.61 35.6214 306.107 35.6214C307.952 35.6214 309.571 35.1862 310.964 34.3159C312.356 33.4108 313.053 32.0357 313.053 30.1906C313.053 28.7285 312.461 27.51 311.277 26.5352C310.128 25.5605 308.509 24.6728 306.42 23.8721C304.261 23.0714 302.468 22.2881 301.041 21.5222C299.614 20.7215 298.378 19.6249 297.333 18.2324C296.323 16.805 295.819 15.0296 295.819 12.906C295.819 9.80766 296.863 7.31854 298.952 5.43864C301.076 3.52393 303.861 2.49695 307.308 2.3577C309.815 2.3577 312.008 2.65361 313.888 3.24543C315.803 3.80244 317.579 4.60313 319.215 5.64752L316.917 10.295Z" fill="#F4BCBB"/>
<path d="M333.474 2.56658V34.7337H352.223V40.5822H327.364V2.56658H333.474Z" fill="#F4BCBB"/>
<path d="M357.093 21.6266C357.093 18.1453 357.963 14.9252 359.704 11.9661C361.445 8.97215 363.795 6.58747 366.754 4.81201C369.749 3.03655 373.004 2.14882 376.52 2.14882C380.002 2.14882 383.222 3.03655 386.182 4.81201C389.176 6.58747 391.561 8.97215 393.337 11.9661C395.112 14.96 396 18.1802 396 21.6266C396 25.1427 395.112 28.3803 393.337 31.3394C391.596 34.2985 389.228 36.6484 386.234 38.389C383.24 40.1297 380.002 41 376.52 41C373.004 41 369.749 40.1471 366.754 38.4413C363.795 36.7006 361.445 34.3507 359.704 31.3916C357.963 28.4326 357.093 25.1775 357.093 21.6266ZM363.36 21.6266C363.36 24.0983 363.952 26.3612 365.135 28.4151C366.319 30.4691 367.921 32.1053 369.94 33.3238C371.994 34.5422 374.24 35.1514 376.677 35.1514C379.079 35.1514 381.273 34.5596 383.257 33.376C385.242 32.1575 386.809 30.5213 387.957 28.4674C389.141 26.3786 389.733 24.0983 389.733 21.6266C389.733 19.1549 389.141 16.8747 387.957 14.7859C386.774 12.6971 385.172 11.0435 383.153 9.82506C381.133 8.60661 378.923 7.99739 376.52 7.99739C374.083 7.99739 371.855 8.60661 369.836 9.82506C367.851 11.0435 366.267 12.6971 365.083 14.7859C363.934 16.8747 363.36 19.1549 363.36 21.6266Z" fill="#F4BCBB"/>
</svg>
