<svg width="44" height="34" viewBox="0 0 44 34" fill="none" xmlns="http://www.w3.org/2000/svg">
<path d="M13.6394 33.6097C29.8422 33.6097 38.7047 20.9804 38.7047 10.0295C38.7047 9.67003 38.6961 9.31254 38.679 8.95909C40.3986 7.78967 41.895 6.32941 43.0737 4.66719C41.4957 5.32763 39.7975 5.77197 38.0156 5.97192C39.834 4.94591 41.2316 3.32205 41.8886 1.38717C40.1861 2.33643 38.3011 3.02718 36.2959 3.3988C34.6878 1.78707 32.3992 0.78125 29.8658 0.78125C25.0009 0.78125 21.0549 4.49349 21.0549 9.06815C21.0549 9.7185 21.1322 10.3507 21.2824 10.9586C13.9614 10.6132 7.46914 7.31504 3.12377 2.30008C2.3659 3.52403 1.93008 4.94793 1.93008 6.46474C1.93008 9.34081 3.48445 11.8776 5.85036 13.3641C4.40548 13.3217 3.04862 12.948 1.86137 12.328C1.85923 12.3623 1.85923 12.3966 1.85923 12.433C1.85923 16.4462 4.89713 19.7989 8.9269 20.5583C8.18622 20.7482 7.40903 20.8492 6.60393 20.8492C6.03715 20.8492 5.48538 20.7967 4.94865 20.6997C6.06934 23.9918 9.32194 26.3892 13.1778 26.4559C10.1614 28.6796 6.36347 30.0025 2.23709 30.0025C1.52646 30.0025 0.824416 29.9642 0.135254 29.8874C4.03407 32.2384 8.66282 33.6097 13.6394 33.6097Z" fill="#FFFDED"/>
</svg>
